<svg xmlns="http://www.w3.org/2000/svg" viewBox="0 0 24 24" fill="#FF9900">
  <path d="M6.763 10.036c0 .296.032.535.088.71.064.176.144.368.256.576.04.063.056.127.056.183 0 .08-.048.16-.152.24l-.503.335a.383.383 0 01-.208.072c-.08 0-.16-.04-.239-.112a2.47 2.47 0 01-.287-.375 6.18 6.18 0 01-.248-.471c-.622.734-1.405 1.101-2.347 1.101-.67 0-1.205-.191-1.596-.574-.391-.384-.59-.896-.59-1.533 0-.678.239-1.23.726-1.644.487-.415 1.133-.623 1.955-.623.272 0 .551.024.846.064.296.04.6.104.918.176v-.583c0-.607-.127-1.03-.375-1.277-.255-.248-.686-.367-1.3-.367-.28 0-.568.031-.863.103-.295.072-.583.16-.862.264a2.11 2.11 0 01-.255.088.411.411 0 01-.12.016c-.16 0-.239-.112-.239-.343v-.391c0-.176.024-.31.08-.391.055-.08.152-.16.288-.24.28-.144.614-.263 1.006-.359A4.802 4.802 0 015.64 5.16c.766 0 1.325.174 1.683.52.351.344.531.87.531 1.575v2.078h.035l-.126.007zm-3.24 1.197c.263 0 .534-.048.822-.143.287-.096.543-.271.758-.51.128-.151.224-.32.272-.511.047-.191.08-.423.08-.694v-.335a6.66 6.66 0 00-.735-.136 6.02 6.02 0 00-.751-.047c-.535 0-.926.104-1.19.32-.263.215-.39.518-.39.917 0 .375.095.655.295.846.191.2.47.293.839.293zm6.468.752c-.143 0-.24-.024-.303-.08-.064-.048-.12-.16-.168-.311L7.586 5.55a1.398 1.398 0 01-.072-.343c0-.136.072-.208.208-.208h.782c.151 0 .255.024.31.08.065.048.113.16.16.312l1.342 5.284 1.245-5.284c.04-.16.088-.264.151-.312a.549.549 0 01.32-.08h.638c.152 0 .256.024.32.08.063.048.12.16.151.312l1.261 5.348 1.381-5.348c.048-.16.104-.264.16-.312a.52.52 0 01.311-.08h.743c.136 0 .216.072.216.208 0 .04-.008.08-.016.128a1.137 1.137 0 01-.056.215l-1.923 6.044c-.048.16-.104.264-.168.312a.573.573 0 01-.303.08h-.687c-.151 0-.255-.024-.319-.088-.063-.056-.119-.16-.15-.32l-1.238-5.148-1.23 5.14c-.04.16-.087.264-.15.32-.064.064-.176.088-.32.088h-.686zm10.256.215c-.415 0-.83-.048-1.229-.143-.399-.096-.71-.2-.918-.312-.128-.072-.216-.152-.248-.232a.576.576 0 01-.048-.224v-.407c0-.231.088-.343.256-.343.064 0 .128.008.191.024.064.016.16.056.272.096.271.12.566.215.878.279.319.064.63.096.95.096.503 0 .894-.088 1.165-.264a.86.86 0 00.415-.758.777.777 0 00-.215-.559c-.144-.151-.415-.287-.806-.415l-1.157-.36c-.583-.183-1.014-.455-1.277-.815a1.9 1.9 0 01-.4-1.157c0-.335.073-.63.216-.886.144-.256.336-.48.575-.655.24-.184.511-.32.83-.415a3.652 3.652 0 011.014-.136c.175 0 .359.008.535.032.183.024.35.056.518.088.16.04.312.08.455.127.144.048.256.096.336.144a.69.69 0 01.24.2.43.43 0 01.071.263v.375c0 .231-.088.351-.255.351a1.147 1.147 0 01-.415-.12 4.987 4.987 0 00-1.565-.255c-.455 0-.815.072-1.07.215-.255.144-.384.367-.384.678 0 .215.08.399.239.551.16.152.455.304.878.44l1.134.358c.574.184.99.44 1.237.767.248.328.367.703.367 1.117 0 .343-.064.655-.2.927-.128.28-.312.527-.55.727-.24.208-.527.36-.863.479a3.845 3.845 0 01-1.094.16z"/>
</svg>
